<?xml version="1.0" standalone="no"?>
<!DOCTYPE svg PUBLIC "-//W3C//DTD SVG 20010904//EN"
 "http://www.w3.org/TR/2001/REC-SVG-20010904/DTD/svg10.dtd">
<svg version="1.0" xmlns="http://www.w3.org/2000/svg"
 width="600.000000pt" height="600.000000pt" viewBox="0 0 600.000000 600.000000"
 preserveAspectRatio="xMidYMid meet">

<g transform="translate(0.000000,600.000000) scale(0.100000,-0.100000)"
fill="#000000" stroke="none">
<path d="M2395 5870 c-16 -5 -46 -7 -67 -4 -28 5 -44 1 -67 -16 -17 -12 -31
-27 -31 -34 0 -20 -32 -43 -76 -55 -50 -13 -140 -64 -209 -119 -28 -21 -65
-46 -83 -56 -26 -14 -32 -22 -32 -50 0 -26 -8 -39 -39 -64 -22 -18 -45 -32
-50 -32 -15 0 -14 -27 2 -33 10 -3 10 -11 0 -39 -7 -19 -13 -46 -13 -60 0 -14
-11 -45 -25 -69 -20 -37 -23 -55 -20 -104 2 -33 8 -80 13 -103 8 -35 6 -56 -9
-105 -11 -34 -20 -96 -21 -137 -2 -66 2 -86 34 -165 20 -49 39 -108 43 -130 4
-22 15 -65 25 -95 11 -30 20 -66 22 -80 2 -14 7 21 11 77 8 109 25 180 27 113
2 -61 10 -103 21 -116 22 -27 107 -62 169 -69 8 -1 33 -7 55 -13 22 -6 57 -11
78 -10 43 1 54 -6 38 -26 -9 -11 -9 -15 1 -18 7 -3 -2 -18 -25 -40 -20 -20
-37 -40 -38 -45 0 -4 -3 -17 -5 -28 -3 -11 -6 -26 -6 -34 -1 -8 -10 -16 -20
-19 -10 -2 -15 -8 -12 -13 3 -5 -1 -9 -9 -9 -19 0 -51 -36 -43 -49 4 -5 2 -12
-3 -15 -5 -4 -12 -2 -16 4 -4 6 -11 7 -17 4 -6 -4 -8 -2 -4 4 10 16 -13 25
-30 12 -9 -9 -11 -17 -5 -24 7 -8 -1 -18 -27 -31 -45 -24 -54 -35 -40 -53 8
-9 8 -16 0 -24 -9 -9 -12 -8 -12 5 0 9 -4 17 -10 17 -6 0 -6 -9 0 -26 14 -36
12 -54 -4 -54 -10 0 -18 19 -25 53 -18 88 -41 275 -41 327 0 45 -12 72 -23 53
-3 -5 -1 -62 4 -128 5 -66 13 -192 18 -280 6 -88 15 -173 20 -190 7 -24 9 -19
6 30 -2 33 -6 78 -10 100 l-6 40 17 -30 18 -30 6 24 c5 23 6 22 17 -13 9 -31
9 -38 -3 -43 -8 -3 -14 -16 -14 -30 0 -13 4 -22 9 -19 5 3 14 -1 21 -9 11 -13
10 -20 0 -40 -7 -14 -19 -25 -27 -25 -7 0 -13 -6 -13 -14 0 -22 40 -66 61 -66
20 0 64 -61 112 -156 14 -28 50 -72 79 -98 82 -73 198 -206 223 -256 42 -82
106 -356 109 -467 1 -17 4 -29 9 -26 4 2 12 1 17 -2 17 -10 -69 -126 -102
-138 -14 -5 -15 -12 -8 -36 5 -17 6 -31 4 -31 -3 0 2 -7 10 -16 9 -8 16 -24
16 -34 0 -10 16 -37 35 -60 34 -41 53 -85 42 -96 -3 -3 -18 13 -33 35 l-27 42
-21 -20 c-12 -12 -55 -66 -96 -121 -41 -55 -101 -135 -134 -178 -48 -64 -113
-157 -223 -322 -9 -14 -37 -50 -63 -80 -25 -30 -65 -81 -88 -112 -24 -31 -47
-58 -51 -60 -5 -2 -205 -264 -296 -387 -11 -14 -46 -58 -79 -96 -32 -38 -63
-80 -69 -94 -6 -14 -26 -46 -44 -70 -18 -24 -33 -47 -33 -52 0 -10 95 -79 110
-79 17 0 93 83 140 153 46 68 111 147 159 195 48 47 56 33 53 -96 -1 -59 1
-140 6 -180 8 -68 5 -118 -13 -234 -7 -45 -6 -48 20 -60 33 -15 38 -8 61 87 9
38 36 130 60 202 48 146 52 177 28 239 -13 35 -14 51 -4 99 11 51 20 66 88
139 74 77 94 103 109 136 19 42 98 147 119 158 13 7 24 19 24 27 0 26 54 125
61 113 9 -14 67 74 129 197 53 104 142 257 170 292 18 23 19 23 25 3 9 -27 23
-25 31 4 8 33 56 66 104 70 38 4 110 40 110 55 0 5 41 48 91 97 l91 89 -68 63
c-86 81 -104 90 -111 63 -4 -16 -13 -21 -37 -21 l-31 0 32 19 c17 11 34 28 37
39 4 11 25 32 47 46 75 50 414 312 567 439 59 49 145 114 191 144 82 54 97 65
150 110 l26 22 -38 1 c-20 0 -46 5 -57 12 -15 10 -22 9 -38 -5 -10 -9 -22 -14
-25 -10 -4 3 -13 -2 -21 -12 -12 -16 -16 -17 -30 -6 -9 7 -16 10 -17 5 0 -5
-7 13 -14 41 -10 35 -11 53 -3 62 7 9 7 13 -1 13 -6 0 -11 -5 -11 -11 0 -6
-10 -9 -22 -7 -19 3 -23 9 -22 40 1 21 -3 35 -7 32 -5 -3 -9 1 -10 8 -3 59
-52 122 -97 126 -19 2 -39 13 -51 28 -10 13 -25 24 -32 24 -7 0 -20 7 -30 15
-15 14 -18 14 -34 -2 -17 -16 -17 -15 -14 18 4 30 2 35 -12 32 -31 -8 -76 25
-98 72 -11 24 -20 48 -19 52 5 21 -15 112 -24 107 -5 -3 -12 3 -15 15 -3 12
-9 21 -14 21 -5 0 -9 10 -9 23 0 21 -4 23 -32 19 -27 -4 -30 -2 -26 16 4 15 2
19 -8 15 -8 -3 -14 -1 -14 4 0 5 -25 9 -55 9 -30 0 -57 3 -60 6 -4 4 -10 23
-15 43 -7 31 -6 36 8 32 10 -2 16 -9 14 -15 -1 -7 10 -12 28 -12 17 0 33 -7
39 -17 5 -10 21 -18 35 -18 15 -1 40 -11 56 -24 25 -18 30 -19 30 -6 0 9 -9
28 -21 44 -11 15 -21 36 -23 47 -1 10 -12 23 -24 29 -14 6 -24 23 -28 43 -4
19 -14 36 -22 40 -18 6 -57 38 -81 65 -8 9 -25 17 -37 17 -20 0 -22 -4 -17
-40 6 -46 -4 -51 -46 -21 -15 11 -53 31 -85 45 -50 22 -64 24 -101 16 -33 -7
-52 -6 -79 5 -41 17 -92 20 -101 5 -4 -6 -15 -8 -25 -5 -13 4 -26 -2 -41 -19
-27 -31 -39 -33 -39 -6 0 19 91 162 130 205 10 11 36 56 58 100 22 45 54 96
71 114 29 31 33 32 53 19 14 -9 32 -43 47 -88 21 -62 35 -83 85 -132 32 -32
67 -58 78 -58 10 0 18 -4 18 -8 0 -29 181 -77 259 -69 99 11 194 27 205 36 6
4 24 11 40 15 28 7 75 50 77 71 10 85 -49 258 -107 318 -47 47 -120 110 -134
115 -6 2 -10 14 -10 26 0 17 -6 22 -32 24 -18 2 -49 7 -68 12 -34 9 -208 5
-241 -5 -9 -3 -21 1 -27 8 -16 19 -133 6 -173 -19 -17 -10 -80 -13 -94 -3 -12
8 -73 22 -78 17 -2 -2 -11 3 -19 10 -12 10 -17 10 -20 1 -3 -8 -9 -6 -21 5
-18 18 -76 19 -89 2 -4 -6 -11 -6 -20 1 -32 26 -62 25 -149 -3 -58 -19 -87
-33 -84 -41 2 -7 -2 -13 -11 -13 -8 0 -18 -8 -21 -17 -4 -9 -22 -31 -42 -47
-19 -17 -40 -37 -48 -44 -11 -11 -13 -7 -13 22 0 19 5 38 10 41 6 3 10 22 10
41 0 24 5 34 15 34 9 0 15 9 15 21 0 19 4 21 35 16 19 -3 37 -2 40 3 3 5 14 7
25 5 22 -4 26 5 9 22 -7 7 2 12 32 17 23 4 47 10 53 14 6 4 13 7 16 8 27 6 70
28 70 35 0 5 18 9 39 9 22 0 42 4 45 9 7 11 48 2 58 -13 5 -8 13 -7 28 2 23
14 80 16 80 3 0 -5 12 -13 28 -19 21 -7 31 -5 47 10 10 10 31 21 45 24 14 3
33 9 42 14 11 6 32 4 60 -6 70 -25 170 1 155 41 -4 9 -1 15 8 15 14 0 16 8 19
78 1 22 45 35 64 19 17 -14 22 -13 32 3 5 8 13 9 21 4 8 -5 28 -9 46 -11 48
-3 122 -50 129 -81 6 -27 53 -104 67 -110 4 -2 7 -8 7 -14 0 -5 11 -32 25 -60
14 -27 25 -56 25 -64 0 -8 5 -14 10 -14 6 0 10 -11 10 -24 0 -13 7 -29 15 -36
8 -7 15 -19 15 -27 0 -8 4 -12 9 -8 10 6 16 -9 25 -66 4 -21 13 -42 21 -49 8
-7 15 -17 15 -22 0 -11 15 -31 60 -77 20 -20 44 -49 54 -65 30 -47 56 -199 62
-355 3 -79 10 -153 16 -164 11 -21 11 -21 29 2 11 13 19 29 19 37 0 23 15 16
48 -21 18 -19 32 -44 32 -57 0 -20 -1 -21 -13 -4 -12 17 -14 16 -31 -9 -11
-17 -20 -55 -23 -101 -5 -62 -3 -74 11 -80 9 -3 16 -14 16 -24 0 -19 39 -35
53 -21 12 12 0 31 -19 31 -17 0 -19 19 -1 22 6 1 37 2 68 2 31 1 63 7 72 14
21 18 30 98 17 152 -20 80 -27 126 -20 146 23 64 64 -184 46 -279 -7 -36 -31
-54 -67 -48 -23 3 -58 -44 -52 -69 4 -15 14 -20 43 -20 46 0 56 11 112 125 74
147 98 325 51 371 -30 31 -71 54 -95 55 -20 1 -19 2 9 15 29 12 32 19 38 71 4
32 13 94 21 138 7 44 14 102 14 129 0 42 2 47 15 36 12 -10 15 -9 16 6 5 88
-27 268 -56 313 -20 33 -22 42 -10 48 7 5 18 27 23 50 9 38 6 49 -24 108 -19
36 -34 79 -34 96 0 42 -53 149 -94 188 l-35 34 19 -51 c24 -62 24 -72 6 -72
-7 0 -20 15 -27 33 -26 64 -101 118 -300 217 -78 39 -153 79 -166 90 -24 19
-105 60 -158 80 -14 5 -94 17 -178 25 -84 8 -188 24 -232 36 -90 23 -265 34
-310 19z m-168 -1816 c-7 -40 -37 -71 -49 -51 -5 8 -12 6 -22 -8 -12 -16 -17
-17 -27 -8 -10 10 -9 14 4 19 9 3 17 12 17 20 0 16 40 55 51 48 4 -2 10 0 14
6 12 20 17 9 12 -26z m-410 -176 c-3 -8 -6 -5 -6 6 -1 11 2 17 5 13 3 -3 4
-12 1 -19z m1913 3 c0 -21 -13 -41 -26 -41 -17 0 -17 5 -4 31 11 20 30 26 30
10z m-50 -31 c0 -5 -7 -10 -16 -10 -8 0 -12 5 -9 10 3 6 10 10 16 10 5 0 9 -4
9 -10z m-965 -266 c33 -4 69 -13 80 -20 11 -7 25 -13 30 -14 9 0 10 -4 7 -30
-3 -19 -162 -5 -199 16 -45 26 -44 71 2 60 11 -2 47 -8 80 -12z m258 -18 c9
-13 13 -33 10 -45 -8 -29 -41 -27 -53 4 -5 14 -15 25 -21 25 -7 0 -5 8 6 20
24 26 39 25 58 -4z m-623 -16 c0 -15 -7 -20 -25 -20 -14 0 -25 -4 -25 -10 0
-5 -4 -10 -9 -10 -5 0 -8 7 -7 16 2 13 31 33 64 43 1 1 2 -8 2 -19z m318
-1201 c-6 -17 -22 -12 -30 10 -7 19 -5 20 13 11 11 -6 19 -16 17 -21z m35 -83
c4 -10 -5 -16 -27 -20 -36 -7 -56 -37 -56 -86 0 -16 -4 -31 -9 -34 -10 -6 -13
71 -5 116 5 22 11 28 42 31 20 2 40 4 43 5 4 1 9 -4 12 -12z m-194 -200 c10
-12 8 -13 -9 -9 -25 7 -37 23 -17 23 8 0 20 -6 26 -14z"/>
<path d="M3016 3983 c-11 -26 13 -42 29 -19 8 10 12 23 9 27 -9 15 -31 10 -38
-8z"/>
<path d="M3065 3867 c-4 -10 -5 -21 -1 -24 10 -10 18 4 13 24 -4 17 -4 17 -12
0z"/>
<path d="M3220 3790 c0 -27 4 -38 13 -35 16 7 17 75 0 75 -8 0 -13 -14 -13
-40z"/>
<path d="M3574 3763 c-24 -68 -32 -325 -9 -317 8 4 18 18 22 33 3 14 12 32 20
39 7 7 13 24 13 38 0 31 26 32 36 2 4 -13 8 -45 9 -73 3 -72 5 -75 20 -26 8
25 21 49 29 53 9 5 16 21 16 36 0 15 7 36 15 46 17 23 10 39 -13 32 -11 -4
-30 8 -53 32 -44 46 -50 56 -55 95 -11 73 -25 76 -50 10z"/>
<path d="M3202 3720 c-18 -29 -15 -50 8 -50 24 0 43 39 28 58 -14 17 -21 15
-36 -8z"/>
<path d="M3235 2620 c-3 -5 -1 -10 4 -10 6 0 11 5 11 10 0 6 -2 10 -4 10 -3 0
-8 -4 -11 -10z"/>
<path d="M3797 2502 c-31 -31 -57 -61 -57 -67 -1 -34 -31 -46 -156 -65 -160
-24 -224 -39 -224 -52 0 -13 19 -49 37 -70 14 -16 17 -16 42 2 14 11 69 31
121 46 129 37 159 51 169 78 5 12 35 52 66 87 97 110 98 135 2 41z"/>
<path d="M3020 2414 c0 -8 5 -12 10 -9 6 4 8 11 5 16 -9 14 -15 11 -15 -7z"/>
<path d="M3387 2003 c-110 -98 -196 -173 -332 -288 -196 -166 -191 -162 -371
-338 -254 -250 -491 -553 -649 -832 -79 -138 -165 -301 -165 -312 0 -10 68
-40 74 -31 1 1 18 43 36 92 19 49 53 126 76 170 70 137 127 241 134 246 4 3
19 28 33 55 28 55 174 256 278 380 90 109 239 250 389 369 69 55 127 102 130
106 3 3 25 21 50 40 67 52 257 216 318 274 71 67 96 116 60 116 -4 0 -32 -21
-61 -47z"/>
<path d="M4408 1513 c-10 -2 -18 -9 -18 -14 0 -6 -5 -7 -10 -4 -6 3 -13 -1
-16 -9 -3 -9 -10 -13 -15 -10 -5 3 -9 1 -9 -5 0 -5 -2 -15 -5 -23 -3 -7 -1
-20 5 -28 8 -13 11 -12 25 5 15 20 15 20 31 0 12 -14 18 -16 21 -7 3 7 10 18
17 25 7 7 15 27 19 45 7 33 0 37 -45 25z"/>
<path d="M1623 1348 c-78 -47 -93 -67 -93 -130 0 -27 -7 -49 -22 -68 -13 -16
-34 -48 -48 -71 -14 -24 -65 -93 -115 -154 -179 -220 -213 -269 -196 -279 5
-3 23 19 40 49 35 61 95 143 189 255 34 41 97 127 140 190 42 63 100 143 129
178 48 56 59 72 50 72 -1 0 -35 -19 -74 -42z"/>
<path d="M3733 1013 c-5 -10 -16 -38 -23 -63 -8 -25 -18 -50 -23 -57 -5 -7 -6
-16 -3 -21 9 -14 -19 -33 -38 -26 -12 5 -16 0 -16 -21 0 -14 -4 -34 -10 -44
-5 -10 -11 -40 -14 -67 -3 -27 -10 -62 -15 -77 -6 -16 -11 -38 -11 -50 0 -12
-6 -33 -13 -47 -27 -52 -49 -121 -43 -136 5 -14 1 -17 -43 -30 -11 -4 -10 -9
5 -25 10 -12 17 -32 16 -45 -2 -13 1 -24 7 -24 6 0 11 -9 11 -20 0 -11 -4 -20
-9 -20 -5 0 -12 -9 -16 -19 -3 -11 -16 -22 -28 -24 -12 -2 37 -5 108 -6 l130
-1 1 43 c1 23 5 103 9 177 6 111 5 146 -9 198 -9 35 -16 77 -16 94 0 44 38
268 51 297 12 28 5 41 -8 14z m-73 -214 c0 -11 -4 -17 -10 -14 -5 3 -10 13
-10 21 0 8 5 14 10 14 6 0 10 -9 10 -21z"/>
<path d="M3992 1010 c0 -14 2 -19 5 -12 2 6 2 18 0 25 -3 6 -5 1 -5 -13z"/>
<path d="M3978 907 c-5 -10 -8 -34 -8 -53 0 -29 -3 -34 -24 -34 -13 0 -29 -7
-36 -15 -13 -15 -4 -19 38 -18 7 1 12 -12 12 -33 0 -49 18 -51 22 -2 2 29 8
43 17 43 8 0 16 6 19 13 2 6 -3 12 -12 12 -11 0 -16 13 -18 53 -2 35 -5 46
-10 34z"/>
<path d="M3835 699 c-4 -5 3 -9 14 -9 26 0 35 15 11 17 -11 1 -22 -2 -25 -8z"/>
<path d="M3376 613 c-3 -16 -10 -64 -16 -108 -14 -100 -24 -125 -50 -125 -11
0 -20 -4 -20 -9 0 -18 18 -21 51 -7 31 13 32 16 35 72 1 33 6 92 11 132 8 69
0 102 -11 45z"/>
<path d="M4345 577 c-5 -18 -12 -23 -35 -21 -16 1 -33 5 -38 8 -5 3 -20 -3
-32 -14 -13 -11 -28 -20 -35 -20 -6 0 -33 -11 -61 -24 -52 -25 -103 -41 -119
-37 -5 2 -7 -1 -3 -4 4 -4 -4 -16 -17 -27 -19 -15 -29 -17 -45 -8 -16 9 -20 8
-20 -5 0 -16 -65 -51 -87 -47 -7 2 -17 -7 -23 -18 -6 -12 -21 -20 -35 -20 -25
0 -26 -2 -29 -75 -1 -11 -5 -26 -9 -32 -6 -9 -3 -11 7 -7 10 4 16 1 16 -9 0
-10 -12 -17 -32 -20 -18 -2 32 -4 112 -4 80 0 133 2 118 4 -19 3 -25 9 -21 19
4 10 9 12 18 4 9 -8 17 -4 29 15 32 49 51 66 93 86 23 10 47 19 52 19 6 0 8 6
5 14 -3 7 7 21 23 31 15 10 32 22 38 27 5 4 30 24 55 43 25 19 52 42 61 50 15
14 17 14 23 -1 8 -22 22 -9 31 29 5 17 3 27 -4 27 -6 0 -11 6 -11 14 0 26 -19
28 -25 3z"/>
<path d="M2580 420 c0 -5 5 -10 10 -10 6 0 10 5 10 10 0 6 -4 10 -10 10 -5 0
-10 -4 -10 -10z"/>
<path d="M2668 403 c7 -3 16 -2 19 1 4 3 -2 6 -13 5 -11 0 -14 -3 -6 -6z"/>
<path d="M2953 373 c9 -2 25 -2 35 0 9 3 1 5 -18 5 -19 0 -27 -2 -17 -5z"/>
<path d="M3123 363 c15 -2 37 -2 50 0 12 2 0 4 -28 4 -27 0 -38 -2 -22 -4z"/>
<path d="M3418 193 c7 -3 16 -2 19 1 4 3 -2 6 -13 5 -11 0 -14 -3 -6 -6z"/>
</g>
</svg>
